<?xml version="1.0" encoding="iso-8859-1"?>
<!-- Generator: Adobe Illustrator 16.0.0, SVG Export Plug-In . SVG Version: 6.00 Build 0)  -->
<!DOCTYPE svg PUBLIC "-//W3C//DTD SVG 1.1//EN" "http://www.w3.org/Graphics/SVG/1.1/DTD/svg11.dtd">
<svg version="1.1" id="Capa_1" xmlns="http://www.w3.org/2000/svg" xmlns:xlink="http://www.w3.org/1999/xlink" x="0px" y="0px"
	 width="46.018px" height="46.018px" viewBox="0 0 46.018 46.018" style="enable-background:new 0 0 46.018 46.018;"
	 xml:space="preserve">
<g>
	<path d="M37.985,9.304h-3.727V8.256c0-4.534-3.77-8.256-8.303-8.256h-5.917c-4.533,0-8.281,3.722-8.281,8.256v1.049H8.01
		c-4.071,0-7.417,3.234-7.417,7.307v22.085c0,4.07,3.346,7.32,7.417,7.32h29.976c4.071,0,7.439-3.25,7.439-7.32V16.611
		C45.425,12.539,42.057,9.304,37.985,9.304z M17.188,8.256c0-1.632,1.22-3.012,2.852-3.012h5.917c1.631,0,2.89,1.38,2.89,3.012
		v1.049H17.188V8.256z M16.523,31.242h-4.51c-1.013,0-1.834-0.82-1.834-1.834v-4.51c0-1.014,0.821-1.834,1.834-1.834h4.51
		c1.013,0,1.834,0.82,1.834,1.834v4.51C18.357,30.422,17.535,31.242,16.523,31.242z M29.995,38.646
		c-2.399,0-4.346-1.945-4.346-4.345c0-2.4,1.945-4.346,4.346-4.346s4.345,1.945,4.345,4.346C34.34,36.7,32.396,38.646,29.995,38.646
		z M27.751,21.242l3.787-1.712c0.588-0.267,1.279-0.005,1.546,0.583l1.712,3.787c0.429,0.947-0.503,1.941-1.479,1.574L27.819,23.4
		C26.846,23.033,26.803,21.671,27.751,21.242z"/>
</g>
<g>
</g>
<g>
</g>
<g>
</g>
<g>
</g>
<g>
</g>
<g>
</g>
<g>
</g>
<g>
</g>
<g>
</g>
<g>
</g>
<g>
</g>
<g>
</g>
<g>
</g>
<g>
</g>
<g>
</g>
</svg>
